<svg xmlns="http://www.w3.org/2000/svg" viewBox="0 0 512 512">
  <rect width="512" height="512" rx="96" fill="#0e0f1a"/>
  <rect x="160" y="128" width="32" height="32" fill="#5b8def"/><rect x="192" y="128" width="32" height="32" fill="#7187f1"/><rect x="224" y="128" width="32" height="32" fill="#8782f4"/><rect x="160" y="160" width="32" height="32" fill="#5b8def"/><rect x="192" y="160" width="32" height="32" fill="#7187f1"/><rect x="224" y="160" width="32" height="32" fill="#8782f4"/><rect x="256" y="160" width="32" height="32" fill="#9d7cf6"/><rect x="224" y="192" width="32" height="32" fill="#8782f4"/><rect x="256" y="192" width="32" height="32" fill="#9d7cf6"/><rect x="288" y="192" width="32" height="32" fill="#b878d9"/><rect x="256" y="224" width="32" height="32" fill="#9d7cf6"/><rect x="288" y="224" width="32" height="32" fill="#b878d9"/><rect x="320" y="224" width="32" height="32" fill="#d373bd"/><rect x="352" y="224" width="32" height="32" fill="#ee6fa0"/><rect x="256" y="256" width="32" height="32" fill="#9d7cf6"/><rect x="288" y="256" width="32" height="32" fill="#b878d9"/><rect x="320" y="256" width="32" height="32" fill="#d373bd"/><rect x="352" y="256" width="32" height="32" fill="#ee6fa0"/><rect x="224" y="288" width="32" height="32" fill="#8782f4"/><rect x="256" y="288" width="32" height="32" fill="#9d7cf6"/><rect x="288" y="288" width="32" height="32" fill="#b878d9"/><rect x="160" y="320" width="32" height="32" fill="#5b8def"/><rect x="192" y="320" width="32" height="32" fill="#7187f1"/><rect x="224" y="320" width="32" height="32" fill="#8782f4"/><rect x="256" y="320" width="32" height="32" fill="#9d7cf6"/><rect x="160" y="352" width="32" height="32" fill="#5b8def"/><rect x="192" y="352" width="32" height="32" fill="#7187f1"/><rect x="224" y="352" width="32" height="32" fill="#8782f4"/>
</svg>