<svg xmlns="http://www.w3.org/2000/svg" viewBox="0 0 512 512">
  <rect width="512" height="512" rx="96" fill="#0e0f1a"/>
  <rect x="320" y="224" width="32" height="32" fill="#ee6fa0"/><rect x="320" y="256" width="32" height="32" fill="#ee6fa0"/><rect x="288" y="192" width="32" height="32" fill="#ce74c2"/><rect x="288" y="288" width="32" height="32" fill="#ce74c2"/><rect x="320" y="192" width="32" height="32" fill="#ee6fa0"/><rect x="320" y="288" width="32" height="32" fill="#ee6fa0"/><rect x="256" y="160" width="32" height="32" fill="#ad79e5"/><rect x="256" y="320" width="32" height="32" fill="#ad79e5"/><rect x="288" y="160" width="32" height="32" fill="#ce74c2"/><rect x="288" y="320" width="32" height="32" fill="#ce74c2"/><rect x="224" y="128" width="32" height="32" fill="#907ff5"/><rect x="224" y="352" width="32" height="32" fill="#907ff5"/><rect x="256" y="128" width="32" height="32" fill="#ad79e5"/><rect x="256" y="352" width="32" height="32" fill="#ad79e5"/><rect x="192" y="96" width="32" height="32" fill="#7586f2"/><rect x="192" y="384" width="32" height="32" fill="#7586f2"/><rect x="224" y="96" width="32" height="32" fill="#907ff5"/><rect x="224" y="384" width="32" height="32" fill="#907ff5"/><rect x="160" y="64" width="32" height="32" fill="#5b8def"/><rect x="160" y="416" width="32" height="32" fill="#5b8def"/><rect x="192" y="64" width="32" height="32" fill="#7586f2"/><rect x="192" y="416" width="32" height="32" fill="#7586f2"/>
</svg>